G04 PROTEUS GERBER X2 FILE*
%TF.GenerationSoftware,Labcenter,Proteus,8.5-SP0-Build22067*%
%TF.CreationDate,2018-05-10T14:10:55+00:00*%
%TF.FileFunction,Paste,Top*%
%TF.FilePolarity,Positive*%
%TF.Part,Single*%
%FSLAX45Y45*%
%MOMM*%
G01*
%TA.AperFunction,Material*%
%ADD55R,2.000000X1.100000*%
%ADD56R,0.635000X0.508000*%
%ADD57R,1.016000X1.270000*%
%AMPPAD031*
4,1,5,
0.250000,0.150000,
0.250000,-0.150000,
-0.100000,-0.150000,
-0.250000,0.000000,
-0.250000,0.150000,
0.250000,0.150000,
0*%
%ADD37PPAD031*%
%ADD58R,0.550000X0.300000*%
%AMPPAD033*
4,1,5,
0.250000,-0.150000,
0.250000,0.150000,
-0.100000,0.150000,
-0.250000,0.000000,
-0.250000,-0.150000,
0.250000,-0.150000,
0*%
%ADD39PPAD033*%
%AMPPAD034*
4,1,5,
-0.150000,0.250000,
0.150000,0.250000,
0.150000,-0.100000,
0.000000,-0.250000,
-0.150000,-0.250000,
-0.150000,0.250000,
0*%
%ADD40PPAD034*%
%ADD59R,0.300000X0.550000*%
%AMPPAD036*
4,1,5,
0.150000,0.250000,
-0.150000,0.250000,
-0.150000,-0.100000,
0.000000,-0.250000,
0.150000,-0.250000,
0.150000,0.250000,
0*%
%ADD42PPAD036*%
%AMPPAD037*
4,1,5,
-0.250000,-0.150000,
-0.250000,0.150000,
0.100000,0.150000,
0.250000,0.000000,
0.250000,-0.150000,
-0.250000,-0.150000,
0*%
%ADD43PPAD037*%
%AMPPAD038*
4,1,5,
-0.250000,0.150000,
-0.250000,-0.150000,
0.100000,-0.150000,
0.250000,0.000000,
0.250000,0.150000,
-0.250000,0.150000,
0*%
%ADD44PPAD038*%
%AMPPAD039*
4,1,5,
0.150000,-0.250000,
-0.150000,-0.250000,
-0.150000,0.100000,
0.000000,0.250000,
0.150000,0.250000,
0.150000,-0.250000,
0*%
%ADD45PPAD039*%
%AMPPAD040*
4,1,5,
-0.150000,-0.250000,
0.150000,-0.250000,
0.150000,0.100000,
0.000000,0.250000,
-0.150000,0.250000,
-0.150000,-0.250000,
0*%
%ADD46PPAD040*%
%ADD60R,0.889000X1.016000*%
%ADD61R,1.016000X2.540000*%
%ADD62R,1.270000X1.016000*%
%ADD63R,1.100000X2.000000*%
%TA.AperFunction,Profile*%
%ADD28C,0.101600*%
D55*
X-930000Y-350000D03*
X-930000Y-100000D03*
X-930000Y+100000D03*
X-930000Y+350000D03*
D56*
X-640000Y+103980D03*
X-640000Y+10000D03*
X-640000Y-86520D03*
X-401240Y-86520D03*
X-401240Y+7460D03*
X-401240Y+103980D03*
D57*
X-250000Y+100000D03*
X-36640Y+100000D03*
X-250000Y-90000D03*
X-36640Y-90000D03*
X+66640Y-90000D03*
X+280000Y-90000D03*
X+70000Y+100000D03*
X+283360Y+100000D03*
D37*
X+825000Y-150000D03*
D58*
X+825000Y-100000D03*
X+825000Y-50000D03*
X+825000Y+0D03*
X+825000Y+50000D03*
X+825000Y+100000D03*
D39*
X+825000Y+150000D03*
D40*
X+787500Y+187500D03*
D59*
X+737500Y+187500D03*
X+687500Y+187500D03*
X+637500Y+187500D03*
X+587500Y+187500D03*
X+537500Y+187500D03*
D42*
X+487500Y+187500D03*
D43*
X+450000Y+150000D03*
D58*
X+450000Y+100000D03*
X+450000Y+50000D03*
X+450000Y+0D03*
X+450000Y-50000D03*
X+450000Y-100000D03*
D44*
X+450000Y-150000D03*
D45*
X+487500Y-187500D03*
D59*
X+537500Y-187500D03*
X+587500Y-187500D03*
X+637500Y-187500D03*
X+687500Y-187500D03*
X+737500Y-187500D03*
D46*
X+787500Y-187500D03*
D57*
X-400000Y-230000D03*
X-613360Y-230000D03*
D56*
X-610000Y-370000D03*
X-610000Y-463980D03*
X-610000Y-560500D03*
X-371240Y-560500D03*
X-371240Y-370000D03*
D57*
X-350000Y-670000D03*
X-136640Y-670000D03*
X+1413360Y-570000D03*
X+1200000Y-570000D03*
D56*
X+1178080Y-173480D03*
X+1178080Y-267460D03*
X+1178080Y-363980D03*
X+1416840Y-363980D03*
X+1416840Y-173480D03*
D60*
X+1330000Y+440000D03*
X+1236020Y+249500D03*
X+1423980Y+249500D03*
D61*
X+1440000Y+50000D03*
X+1125040Y+50000D03*
D62*
X+970000Y+200000D03*
X+970000Y-13360D03*
D57*
X+1323360Y+610000D03*
X+1110000Y+610000D03*
D62*
X+960000Y+613360D03*
X+960000Y+400000D03*
X+800000Y+613360D03*
X+800000Y+400000D03*
D57*
X+444500Y-350000D03*
X+231140Y-350000D03*
D62*
X+650000Y+610000D03*
X+650000Y+396640D03*
X+500000Y+400000D03*
X+500000Y+613360D03*
D57*
X-90000Y+590000D03*
X+123360Y+590000D03*
D62*
X+1030000Y-683360D03*
X+1030000Y-470000D03*
X+970000Y-146640D03*
X+970000Y-360000D03*
D63*
X+40000Y-640000D03*
X+40000Y-640000D03*
X+240000Y-640000D03*
X+440000Y-640000D03*
X+640000Y-640000D03*
X+840000Y-640000D03*
D28*
X-1490000Y-760000D02*
X+1510000Y-760000D01*
X+1510000Y+760000D01*
X-1490000Y+760000D01*
X-1490000Y-760000D01*
M02*
