G04 PROTEUS GERBER X2 FILE*
%TF.GenerationSoftware,Labcenter,Proteus,8.5-SP0-Build22067*%
%TF.CreationDate,2018-05-10T14:10:55+00:00*%
%TF.FileFunction,Soldermask,Bot*%
%TF.FilePolarity,Negative*%
%TF.Part,Single*%
%FSLAX45Y45*%
%MOMM*%
G01*
%TA.AperFunction,Material*%
%ADD32C,0.812800*%
%AMPPAD028*
4,1,48,
-0.190500,-0.038100,
-0.190500,0.038100,
-0.189730,0.053940,
-0.187470,0.069260,
-0.183780,0.084000,
-0.178740,0.098080,
-0.164880,0.123990,
-0.146440,0.146440,
-0.123990,0.164880,
-0.098080,0.178740,
-0.069260,0.187470,
-0.053940,0.189730,
-0.038100,0.190500,
0.038100,0.190500,
0.053940,0.189730,
0.069260,0.187470,
0.098080,0.178740,
0.123990,0.164880,
0.146440,0.146440,
0.164880,0.123990,
0.178740,0.098080,
0.183780,0.084000,
0.187470,0.069260,
0.189730,0.053940,
0.190500,0.038100,
0.190500,-0.038100,
0.189730,-0.053940,
0.187470,-0.069260,
0.183780,-0.084000,
0.178740,-0.098080,
0.164880,-0.123990,
0.146440,-0.146440,
0.123990,-0.164880,
0.098080,-0.178740,
0.069260,-0.187470,
0.053940,-0.189730,
0.038100,-0.190500,
-0.038100,-0.190500,
-0.053940,-0.189730,
-0.069260,-0.187470,
-0.098080,-0.178740,
-0.123990,-0.164880,
-0.146440,-0.146440,
-0.164880,-0.123990,
-0.178740,-0.098080,
-0.183780,-0.084000,
-0.187470,-0.069260,
-0.189730,-0.053940,
-0.190500,-0.038100,
0*%
%ADD34PPAD028*%
%AMPPAD045*
4,1,36,
-0.254000,-0.444500,
0.254000,-0.444500,
0.279970,-0.441970,
0.303980,-0.434700,
0.325580,-0.423150,
0.344290,-0.407790,
0.359650,-0.389070,
0.371200,-0.367480,
0.378470,-0.343470,
0.381000,-0.317500,
0.381000,0.317500,
0.378470,0.343470,
0.371200,0.367480,
0.359650,0.389070,
0.344290,0.407790,
0.325580,0.423150,
0.303980,0.434700,
0.279970,0.441970,
0.254000,0.444500,
-0.254000,0.444500,
-0.279970,0.441970,
-0.303980,0.434700,
-0.325580,0.423150,
-0.344290,0.407790,
-0.359650,0.389070,
-0.371200,0.367480,
-0.378470,0.343470,
-0.381000,0.317500,
-0.381000,-0.317500,
-0.378470,-0.343470,
-0.371200,-0.367480,
-0.359650,-0.389070,
-0.344290,-0.407790,
-0.325580,-0.423150,
-0.303980,-0.434700,
-0.279970,-0.441970,
-0.254000,-0.444500,
0*%
%ADD51PPAD045*%
%AMPPAD046*
4,1,36,
-0.508000,-0.762000,
0.508000,-0.762000,
0.533970,-0.759470,
0.557980,-0.752200,
0.579580,-0.740650,
0.598290,-0.725290,
0.613650,-0.706570,
0.625200,-0.684980,
0.632470,-0.660970,
0.635000,-0.635000,
0.635000,0.635000,
0.632470,0.660970,
0.625200,0.684980,
0.613650,0.706570,
0.598290,0.725290,
0.579580,0.740650,
0.557980,0.752200,
0.533970,0.759470,
0.508000,0.762000,
-0.508000,0.762000,
-0.533970,0.759470,
-0.557980,0.752200,
-0.579580,0.740650,
-0.598290,0.725290,
-0.613650,0.706570,
-0.625200,0.684980,
-0.632470,0.660970,
-0.635000,0.635000,
-0.635000,-0.635000,
-0.632470,-0.660970,
-0.625200,-0.684980,
-0.613650,-0.706570,
-0.598290,-0.725290,
-0.579580,-0.740650,
-0.557980,-0.752200,
-0.533970,-0.759470,
-0.508000,-0.762000,
0*%
%ADD52PPAD046*%
%AMPPAD047*
4,1,36,
-0.762000,0.508000,
-0.762000,-0.508000,
-0.759470,-0.533970,
-0.752200,-0.557980,
-0.740650,-0.579580,
-0.725290,-0.598290,
-0.706570,-0.613650,
-0.684980,-0.625200,
-0.660970,-0.632470,
-0.635000,-0.635000,
0.635000,-0.635000,
0.660970,-0.632470,
0.684980,-0.625200,
0.706570,-0.613650,
0.725290,-0.598290,
0.740650,-0.579580,
0.752200,-0.557980,
0.759470,-0.533970,
0.762000,-0.508000,
0.762000,0.508000,
0.759470,0.533970,
0.752200,0.557980,
0.740650,0.579580,
0.725290,0.598290,
0.706570,0.613650,
0.684980,0.625200,
0.660970,0.632470,
0.635000,0.635000,
-0.635000,0.635000,
-0.660970,0.632470,
-0.684980,0.625200,
-0.706570,0.613650,
-0.725290,0.598290,
-0.740650,0.579580,
-0.752200,0.557980,
-0.759470,0.533970,
-0.762000,0.508000,
0*%
%ADD53PPAD047*%
%AMPPAD048*
4,1,4,
0.444500,-0.203200,
0.444500,0.203200,
-0.444500,0.203200,
-0.444500,-0.203200,
0.444500,-0.203200,
0*%
%ADD54PPAD048*%
%TA.AperFunction,Profile*%
%ADD28C,0.101600*%
D32*
X-1270000Y-63500D03*
X-1270000Y+63500D03*
X+1079500Y+381000D03*
X-698500Y+190500D03*
X+1397000Y-698500D03*
X-610000Y-698500D03*
X+637672Y-88442D03*
X+335655Y-483779D03*
X-271373Y-346005D03*
X+553720Y-5080D03*
X+177800Y+88900D03*
X+1030000Y-610000D03*
X-698500Y+698500D03*
X+723900Y+104140D03*
X+352140Y-317500D03*
X-238760Y-635000D03*
X+571500Y-414020D03*
X+410000Y-230000D03*
X+1270000Y-190500D03*
X+889000Y-254000D03*
X+1143000Y+508000D03*
X+1090263Y-324591D03*
X+970000Y+90000D03*
X+1084580Y-218440D03*
X+170000Y-60000D03*
X+294488Y-221954D03*
X+635000Y+63500D03*
X+533936Y+100404D03*
X-180329Y+461239D03*
D34*
X-1180000Y-585000D03*
X-1180000Y+585000D03*
D51*
X-669880Y+290320D03*
X-575900Y+290320D03*
X-479380Y+290320D03*
X-479380Y+51560D03*
X-669880Y+51560D03*
D52*
X-1016720Y+463480D03*
X-803360Y+463480D03*
X-683360Y+413480D03*
X-470000Y+413480D03*
D53*
X-343360Y+263480D03*
X-343360Y+50120D03*
D52*
X-310000Y-86520D03*
X-523360Y-86520D03*
X-863360Y-86520D03*
X-650000Y-86520D03*
X-1043360Y+253480D03*
X-830000Y+253480D03*
D54*
X-1190000Y+65000D03*
X-1190000Y+0D03*
X-1190000Y-65000D03*
X-1410000Y-65000D03*
X-1410000Y+0D03*
X-1410000Y+65000D03*
D53*
X-1043360Y-119880D03*
X-1043360Y+93480D03*
X-270000Y-453360D03*
X-270000Y-240000D03*
D52*
X-643360Y-236520D03*
X-430000Y-236520D03*
X-643360Y-376520D03*
X-430000Y-376520D03*
D28*
X-1490000Y-760000D02*
X+1510000Y-760000D01*
X+1510000Y+760000D01*
X-1490000Y+760000D01*
X-1490000Y-760000D01*
M02*
