G04 PROTEUS GERBER X2 FILE*
%TF.GenerationSoftware,Labcenter,Proteus,8.5-SP0-Build22067*%
%TF.CreationDate,2018-05-10T14:10:55+00:00*%
%TF.FileFunction,AssemblyDrawing,Bot*%
%TF.FilePolarity,Positive*%
%TF.Part,Single*%
%FSLAX45Y45*%
%MOMM*%
G01*
%TA.AperFunction,Profile*%
%ADD28C,0.101600*%
%TA.AperFunction,Material*%
%ADD73C,0.101600*%
%ADD67C,0.100750*%
%ADD68C,0.079240*%
%ADD76C,0.078740*%
%ADD79C,0.050000*%
%ADD80C,0.121660*%
D28*
X-1490000Y-760000D02*
X+1510000Y-760000D01*
X+1510000Y+760000D01*
X-1490000Y+760000D01*
X-1490000Y-760000D01*
D73*
X-716870Y+19810D02*
X-427310Y+19810D01*
X-427310Y+322070D01*
X-716870Y+322070D01*
X-716870Y+19810D01*
D67*
X-602316Y+251542D02*
X-551939Y+251542D01*
X-541864Y+241467D01*
X-541864Y+201166D01*
X-551939Y+191091D01*
X-602316Y+191091D01*
X-602316Y+110489D02*
X-602316Y+160865D01*
X-582165Y+160865D01*
X-582165Y+120564D01*
X-572090Y+110489D01*
X-551939Y+110489D01*
X-541864Y+120564D01*
X-541864Y+150790D01*
X-551939Y+160865D01*
D73*
X-1067520Y+399980D02*
X-752560Y+399980D01*
X-752560Y+532060D01*
X-1067520Y+532060D01*
X-1067520Y+399980D01*
D68*
X-846642Y+442245D02*
X-846642Y+489794D01*
X-886265Y+489794D01*
X-894190Y+481869D01*
X-894190Y+473944D01*
X-886265Y+466020D01*
X-846642Y+466020D01*
X-886265Y+466020D02*
X-894190Y+458095D01*
X-894190Y+442245D01*
X-957588Y+473944D02*
X-949663Y+466020D01*
X-925889Y+466020D01*
X-917964Y+473944D01*
X-917964Y+481869D01*
X-925889Y+489794D01*
X-949663Y+489794D01*
X-957588Y+481869D01*
X-957588Y+450170D01*
X-949663Y+442245D01*
X-925889Y+442245D01*
D73*
X-734160Y+349980D02*
X-419200Y+349980D01*
X-419200Y+482060D01*
X-734160Y+482060D01*
X-734160Y+349980D01*
D76*
X-482192Y+392398D02*
X-482192Y+439642D01*
X-521562Y+439642D01*
X-529436Y+431768D01*
X-529436Y+423894D01*
X-521562Y+416020D01*
X-482192Y+416020D01*
X-521562Y+416020D02*
X-529436Y+408146D01*
X-529436Y+392398D01*
X-560932Y+423894D02*
X-576680Y+439642D01*
X-576680Y+392398D01*
X-608176Y+400272D02*
X-608176Y+431768D01*
X-616050Y+439642D01*
X-647546Y+439642D01*
X-655420Y+431768D01*
X-655420Y+400272D01*
X-647546Y+392398D01*
X-616050Y+392398D01*
X-608176Y+400272D01*
X-608176Y+392398D02*
X-655420Y+439642D01*
D73*
X-406860Y-680D02*
X-274780Y-680D01*
X-274780Y+314280D01*
X-406860Y+314280D01*
X-406860Y-680D01*
D76*
X-325072Y+204044D02*
X-317198Y+211918D01*
X-317198Y+235540D01*
X-332946Y+251288D01*
X-348694Y+251288D01*
X-364442Y+235540D01*
X-364442Y+211918D01*
X-356568Y+204044D01*
X-348694Y+172548D02*
X-364442Y+156800D01*
X-317198Y+156800D01*
X-348694Y+109556D02*
X-364442Y+93808D01*
X-317198Y+93808D01*
D73*
X-574160Y-155100D02*
X-259200Y-155100D01*
X-259200Y-23020D01*
X-574160Y-23020D01*
X-574160Y-155100D01*
D68*
X-353282Y-112835D02*
X-353282Y-65286D01*
X-392905Y-65286D01*
X-400830Y-73211D01*
X-400830Y-81136D01*
X-392905Y-89060D01*
X-353282Y-89060D01*
X-392905Y-89060D02*
X-400830Y-96985D01*
X-400830Y-112835D01*
X-424604Y-65286D02*
X-464228Y-65286D01*
X-464228Y-73211D01*
X-424604Y-112835D01*
D73*
X-914160Y-150020D02*
X-599200Y-150020D01*
X-599200Y-17940D01*
X-914160Y-17940D01*
X-914160Y-150020D01*
D68*
X-693282Y-107755D02*
X-693282Y-60206D01*
X-732905Y-60206D01*
X-740830Y-68131D01*
X-740830Y-76056D01*
X-732905Y-83980D01*
X-693282Y-83980D01*
X-732905Y-83980D02*
X-740830Y-91905D01*
X-740830Y-107755D01*
X-772529Y-83980D02*
X-764604Y-76056D01*
X-764604Y-68131D01*
X-772529Y-60206D01*
X-796303Y-60206D01*
X-804228Y-68131D01*
X-804228Y-76056D01*
X-796303Y-83980D01*
X-772529Y-83980D01*
X-764604Y-91905D01*
X-764604Y-99830D01*
X-772529Y-107755D01*
X-796303Y-107755D01*
X-804228Y-99830D01*
X-804228Y-91905D01*
X-796303Y-83980D01*
D73*
X-1094160Y+189980D02*
X-779200Y+189980D01*
X-779200Y+322060D01*
X-1094160Y+322060D01*
X-1094160Y+189980D01*
D68*
X-920830Y+240170D02*
X-912905Y+232245D01*
X-889131Y+232245D01*
X-873282Y+248095D01*
X-873282Y+263944D01*
X-889131Y+279794D01*
X-912905Y+279794D01*
X-920830Y+271869D01*
X-952529Y+256020D02*
X-944604Y+263944D01*
X-944604Y+271869D01*
X-952529Y+279794D01*
X-976303Y+279794D01*
X-984228Y+271869D01*
X-984228Y+263944D01*
X-976303Y+256020D01*
X-952529Y+256020D01*
X-944604Y+248095D01*
X-944604Y+240170D01*
X-952529Y+232245D01*
X-976303Y+232245D01*
X-984228Y+240170D01*
X-984228Y+248095D01*
X-976303Y+256020D01*
D79*
X-1120000Y-135000D02*
X-1480000Y-135000D01*
X-1480000Y+135000D01*
X-1120000Y+135000D01*
X-1120000Y-135000D01*
X-1300000Y+50000D02*
X-1300000Y-50000D01*
X-1350000Y+0D02*
X-1250000Y+0D01*
D80*
X-1202668Y+12166D02*
X-1227001Y+36499D01*
X-1251334Y+36499D01*
X-1275667Y+12166D01*
X-1275667Y-12167D01*
X-1251334Y-36500D01*
X-1227001Y-36500D01*
X-1202668Y-12167D01*
X-1202668Y+12166D01*
X-1251334Y-12167D02*
X-1275667Y-36500D01*
X-1324333Y+12166D02*
X-1348666Y+36499D01*
X-1348666Y-36500D01*
D73*
X-1111940Y-170680D02*
X-979860Y-170680D01*
X-979860Y+144280D01*
X-1111940Y+144280D01*
X-1111940Y-170680D01*
D68*
X-1022125Y+50198D02*
X-1069674Y+50198D01*
X-1069674Y+10575D01*
X-1061749Y+2650D01*
X-1053824Y+2650D01*
X-1045900Y+10575D01*
X-1045900Y+50198D01*
X-1045900Y+10575D02*
X-1037975Y+2650D01*
X-1022125Y+2650D01*
X-1061749Y-60748D02*
X-1069674Y-52823D01*
X-1069674Y-29049D01*
X-1061749Y-21124D01*
X-1030050Y-21124D01*
X-1022125Y-29049D01*
X-1022125Y-52823D01*
X-1030050Y-60748D01*
X-1037975Y-60748D01*
X-1045900Y-52823D01*
X-1045900Y-21124D01*
D73*
X-338580Y-504160D02*
X-206500Y-504160D01*
X-206500Y-189200D01*
X-338580Y-189200D01*
X-338580Y-504160D01*
D68*
X-296314Y-283282D02*
X-248765Y-283282D01*
X-248765Y-330830D01*
X-288389Y-354604D02*
X-296314Y-362529D01*
X-296314Y-386303D01*
X-288389Y-394228D01*
X-280464Y-394228D01*
X-272540Y-386303D01*
X-272540Y-362529D01*
X-264615Y-354604D01*
X-248765Y-354604D01*
X-248765Y-394228D01*
D73*
X-694160Y-300020D02*
X-379200Y-300020D01*
X-379200Y-167940D01*
X-694160Y-167940D01*
X-694160Y-300020D01*
D76*
X-489436Y-249728D02*
X-481562Y-257602D01*
X-457940Y-257602D01*
X-442192Y-241854D01*
X-442192Y-226106D01*
X-457940Y-210358D01*
X-481562Y-210358D01*
X-489436Y-218232D01*
X-520932Y-226106D02*
X-536680Y-210358D01*
X-536680Y-257602D01*
X-568176Y-249728D02*
X-568176Y-218232D01*
X-576050Y-210358D01*
X-607546Y-210358D01*
X-615420Y-218232D01*
X-615420Y-249728D01*
X-607546Y-257602D01*
X-576050Y-257602D01*
X-568176Y-249728D01*
X-568176Y-257602D02*
X-615420Y-210358D01*
D73*
X-694160Y-440020D02*
X-379200Y-440020D01*
X-379200Y-307940D01*
X-694160Y-307940D01*
X-694160Y-440020D01*
D68*
X-520830Y-389830D02*
X-512905Y-397755D01*
X-489131Y-397755D01*
X-473282Y-381905D01*
X-473282Y-366056D01*
X-489131Y-350206D01*
X-512905Y-350206D01*
X-520830Y-358131D01*
X-584228Y-366056D02*
X-576303Y-373980D01*
X-552529Y-373980D01*
X-544604Y-366056D01*
X-544604Y-358131D01*
X-552529Y-350206D01*
X-576303Y-350206D01*
X-584228Y-358131D01*
X-584228Y-389830D01*
X-576303Y-397755D01*
X-552529Y-397755D01*
M02*
