G04 PROTEUS GERBER X2 FILE*
%TF.GenerationSoftware,Labcenter,Proteus,8.5-SP0-Build22067*%
%TF.CreationDate,2018-05-10T14:10:55+00:00*%
%TF.FileFunction,Plated,1,16,PTH*%
%TF.FilePolarity,Positive*%
%TF.Part,Single*%
%FSLAX45Y45*%
%MOMM*%
G01*
%TA.AperFunction,ViaDrill*%
%ADD81C,0.381000*%
%TA.AperFunction,MechanicalDrill*%
%ADD82C,1.100000*%
%TA.AperFunction,Slot*%
%ADD83C,0.100000*%
%TA.AperFunction,MechanicalDrill*%
%ADD84C,3.000000*%
D81*
X-1270000Y-63500D03*
X-1270000Y+63500D03*
X+1079500Y+381000D03*
X-698500Y+190500D03*
X+1397000Y-698500D03*
X-610000Y-698500D03*
X+637672Y-88442D03*
X+335655Y-483779D03*
X-271373Y-346005D03*
X+553720Y-5080D03*
X+177800Y+88900D03*
X+1030000Y-610000D03*
X-698500Y+698500D03*
X+723900Y+104140D03*
X+352140Y-317500D03*
X-238760Y-635000D03*
X+571500Y-414020D03*
X+410000Y-230000D03*
X+1270000Y-190500D03*
X+889000Y-254000D03*
X+1143000Y+508000D03*
X+1090263Y-324591D03*
X+970000Y+90000D03*
X+1084580Y-218440D03*
X+170000Y-60000D03*
X+294488Y-221954D03*
X+635000Y+63500D03*
X+533936Y+100404D03*
X-180329Y+461239D03*
D82*
X-1180000Y-230000D03*
X-1180000Y+230000D03*
D83*
X-1300000Y-625000D02*
X-1300000Y-545000D01*
X-1060000Y-545000D01*
X-1060000Y-625000D01*
X-1300000Y-625000D01*
X-1300000Y+545000D02*
X-1300000Y+625000D01*
X-1060000Y+625000D01*
X-1060000Y+545000D01*
X-1300000Y+545000D01*
D84*
X+0Y+350000D03*
X+0Y-350000D03*
M02*
