G04 PROTEUS GERBER X2 FILE*
%TF.GenerationSoftware,Labcenter,Proteus,8.5-SP0-Build22067*%
%TF.CreationDate,2018-05-10T14:10:55+00:00*%
%TF.FileFunction,Soldermask,Top*%
%TF.FilePolarity,Negative*%
%TF.Part,Single*%
%FSLAX45Y45*%
%MOMM*%
G01*
%TA.AperFunction,Material*%
%ADD32C,0.812800*%
%AMPPAD027*
4,1,36,
-1.127000,-0.550000,
-1.127000,0.550000,
-1.124470,0.575970,
-1.117200,0.599980,
-1.105650,0.621580,
-1.090290,0.640290,
-1.071570,0.655650,
-1.049980,0.667200,
-1.025970,0.674470,
-1.000000,0.677000,
1.000000,0.677000,
1.025970,0.674470,
1.049980,0.667200,
1.071570,0.655650,
1.090290,0.640290,
1.105650,0.621580,
1.117200,0.599980,
1.124470,0.575970,
1.127000,0.550000,
1.127000,-0.550000,
1.124470,-0.575970,
1.117200,-0.599980,
1.105650,-0.621580,
1.090290,-0.640290,
1.071570,-0.655650,
1.049980,-0.667200,
1.025970,-0.674470,
1.000000,-0.677000,
-1.000000,-0.677000,
-1.025970,-0.674470,
-1.049980,-0.667200,
-1.071570,-0.655650,
-1.090290,-0.640290,
-1.105650,-0.621580,
-1.117200,-0.599980,
-1.124470,-0.575970,
-1.127000,-0.550000,
0*%
%ADD33PPAD027*%
%AMPPAD028*
4,1,48,
-0.190500,-0.038100,
-0.190500,0.038100,
-0.189730,0.053940,
-0.187470,0.069260,
-0.183780,0.084000,
-0.178740,0.098080,
-0.164880,0.123990,
-0.146440,0.146440,
-0.123990,0.164880,
-0.098080,0.178740,
-0.069260,0.187470,
-0.053940,0.189730,
-0.038100,0.190500,
0.038100,0.190500,
0.053940,0.189730,
0.069260,0.187470,
0.098080,0.178740,
0.123990,0.164880,
0.146440,0.146440,
0.164880,0.123990,
0.178740,0.098080,
0.183780,0.084000,
0.187470,0.069260,
0.189730,0.053940,
0.190500,0.038100,
0.190500,-0.038100,
0.189730,-0.053940,
0.187470,-0.069260,
0.183780,-0.084000,
0.178740,-0.098080,
0.164880,-0.123990,
0.146440,-0.146440,
0.123990,-0.164880,
0.098080,-0.178740,
0.069260,-0.187470,
0.053940,-0.189730,
0.038100,-0.190500,
-0.038100,-0.190500,
-0.053940,-0.189730,
-0.069260,-0.187470,
-0.098080,-0.178740,
-0.123990,-0.164880,
-0.146440,-0.146440,
-0.164880,-0.123990,
-0.178740,-0.098080,
-0.183780,-0.084000,
-0.187470,-0.069260,
-0.189730,-0.053940,
-0.190500,-0.038100,
0*%
%ADD34PPAD028*%
%AMPPAD029*
4,1,36,
0.444500,0.254000,
0.444500,-0.254000,
0.441970,-0.279970,
0.434700,-0.303980,
0.423150,-0.325580,
0.407790,-0.344290,
0.389070,-0.359650,
0.367480,-0.371200,
0.343470,-0.378470,
0.317500,-0.381000,
-0.317500,-0.381000,
-0.343470,-0.378470,
-0.367480,-0.371200,
-0.389070,-0.359650,
-0.407790,-0.344290,
-0.423150,-0.325580,
-0.434700,-0.303980,
-0.441970,-0.279970,
-0.444500,-0.254000,
-0.444500,0.254000,
-0.441970,0.279970,
-0.434700,0.303980,
-0.423150,0.325580,
-0.407790,0.344290,
-0.389070,0.359650,
-0.367480,0.371200,
-0.343470,0.378470,
-0.317500,0.381000,
0.317500,0.381000,
0.343470,0.378470,
0.367480,0.371200,
0.389070,0.359650,
0.407790,0.344290,
0.423150,0.325580,
0.434700,0.303980,
0.441970,0.279970,
0.444500,0.254000,
0*%
%ADD35PPAD029*%
%AMPPAD030*
4,1,36,
-0.508000,0.762000,
0.508000,0.762000,
0.533970,0.759470,
0.557980,0.752200,
0.579580,0.740650,
0.598290,0.725290,
0.613650,0.706570,
0.625200,0.684980,
0.632470,0.660970,
0.635000,0.635000,
0.635000,-0.635000,
0.632470,-0.660970,
0.625200,-0.684980,
0.613650,-0.706570,
0.598290,-0.725290,
0.579580,-0.740650,
0.557980,-0.752200,
0.533970,-0.759470,
0.508000,-0.762000,
-0.508000,-0.762000,
-0.533970,-0.759470,
-0.557980,-0.752200,
-0.579580,-0.740650,
-0.598290,-0.725290,
-0.613650,-0.706570,
-0.625200,-0.684980,
-0.632470,-0.660970,
-0.635000,-0.635000,
-0.635000,0.635000,
-0.632470,0.660970,
-0.625200,0.684980,
-0.613650,0.706570,
-0.598290,0.725290,
-0.579580,0.740650,
-0.557980,0.752200,
-0.533970,0.759470,
-0.508000,0.762000,
0*%
%ADD36PPAD030*%
%AMPPAD031*
4,1,5,
0.250000,0.150000,
0.250000,-0.150000,
-0.100000,-0.150000,
-0.250000,0.000000,
-0.250000,0.150000,
0.250000,0.150000,
0*%
%ADD37PPAD031*%
%AMPPAD032*
4,1,36,
-0.365000,-0.150000,
-0.365000,0.150000,
-0.363210,0.168400,
-0.358060,0.185420,
-0.349870,0.200720,
-0.338980,0.213980,
-0.325720,0.224870,
-0.310420,0.233060,
-0.293400,0.238210,
-0.275000,0.240000,
0.275000,0.240000,
0.293400,0.238210,
0.310420,0.233060,
0.325720,0.224870,
0.338980,0.213980,
0.349870,0.200720,
0.358060,0.185420,
0.363210,0.168400,
0.365000,0.150000,
0.365000,-0.150000,
0.363210,-0.168400,
0.358060,-0.185420,
0.349870,-0.200720,
0.338980,-0.213980,
0.325720,-0.224870,
0.310420,-0.233060,
0.293400,-0.238210,
0.275000,-0.240000,
-0.275000,-0.240000,
-0.293400,-0.238210,
-0.310420,-0.233060,
-0.325720,-0.224870,
-0.338980,-0.213980,
-0.349870,-0.200720,
-0.358060,-0.185420,
-0.363210,-0.168400,
-0.365000,-0.150000,
0*%
%ADD38PPAD032*%
%AMPPAD033*
4,1,5,
0.250000,-0.150000,
0.250000,0.150000,
-0.100000,0.150000,
-0.250000,0.000000,
-0.250000,-0.150000,
0.250000,-0.150000,
0*%
%ADD39PPAD033*%
%AMPPAD034*
4,1,5,
-0.150000,0.250000,
0.150000,0.250000,
0.150000,-0.100000,
0.000000,-0.250000,
-0.150000,-0.250000,
-0.150000,0.250000,
0*%
%ADD40PPAD034*%
%AMPPAD035*
4,1,36,
0.150000,-0.365000,
-0.150000,-0.365000,
-0.168400,-0.363210,
-0.185420,-0.358060,
-0.200720,-0.349870,
-0.213980,-0.338980,
-0.224870,-0.325720,
-0.233060,-0.310420,
-0.238210,-0.293400,
-0.240000,-0.275000,
-0.240000,0.275000,
-0.238210,0.293400,
-0.233060,0.310420,
-0.224870,0.325720,
-0.213980,0.338980,
-0.200720,0.349870,
-0.185420,0.358060,
-0.168400,0.363210,
-0.150000,0.365000,
0.150000,0.365000,
0.168400,0.363210,
0.185420,0.358060,
0.200720,0.349870,
0.213980,0.338980,
0.224870,0.325720,
0.233060,0.310420,
0.238210,0.293400,
0.240000,0.275000,
0.240000,-0.275000,
0.238210,-0.293400,
0.233060,-0.310420,
0.224870,-0.325720,
0.213980,-0.338980,
0.200720,-0.349870,
0.185420,-0.358060,
0.168400,-0.363210,
0.150000,-0.365000,
0*%
%ADD41PPAD035*%
%AMPPAD036*
4,1,5,
0.150000,0.250000,
-0.150000,0.250000,
-0.150000,-0.100000,
0.000000,-0.250000,
0.150000,-0.250000,
0.150000,0.250000,
0*%
%ADD42PPAD036*%
%AMPPAD037*
4,1,5,
-0.250000,-0.150000,
-0.250000,0.150000,
0.100000,0.150000,
0.250000,0.000000,
0.250000,-0.150000,
-0.250000,-0.150000,
0*%
%ADD43PPAD037*%
%AMPPAD038*
4,1,5,
-0.250000,0.150000,
-0.250000,-0.150000,
0.100000,-0.150000,
0.250000,0.000000,
0.250000,0.150000,
-0.250000,0.150000,
0*%
%ADD44PPAD038*%
%AMPPAD039*
4,1,5,
0.150000,-0.250000,
-0.150000,-0.250000,
-0.150000,0.100000,
0.000000,0.250000,
0.150000,0.250000,
0.150000,-0.250000,
0*%
%ADD45PPAD039*%
%AMPPAD040*
4,1,5,
-0.150000,-0.250000,
0.150000,-0.250000,
0.150000,0.100000,
0.000000,0.250000,
-0.150000,0.250000,
-0.150000,-0.250000,
0*%
%ADD46PPAD040*%
%AMPPAD041*
4,1,36,
0.444500,-0.635000,
-0.444500,-0.635000,
-0.470470,-0.632470,
-0.494480,-0.625200,
-0.516080,-0.613650,
-0.534790,-0.598290,
-0.550150,-0.579570,
-0.561700,-0.557980,
-0.568970,-0.533970,
-0.571500,-0.508000,
-0.571500,0.508000,
-0.568970,0.533970,
-0.561700,0.557980,
-0.550150,0.579570,
-0.534790,0.598290,
-0.516080,0.613650,
-0.494480,0.625200,
-0.470470,0.632470,
-0.444500,0.635000,
0.444500,0.635000,
0.470470,0.632470,
0.494480,0.625200,
0.516080,0.613650,
0.534790,0.598290,
0.550150,0.579570,
0.561700,0.557980,
0.568970,0.533970,
0.571500,0.508000,
0.571500,-0.508000,
0.568970,-0.533970,
0.561700,-0.557980,
0.550150,-0.579570,
0.534790,-0.598290,
0.516080,-0.613650,
0.494480,-0.625200,
0.470470,-0.632470,
0.444500,-0.635000,
0*%
%ADD47PPAD041*%
%AMPPAD042*
4,1,36,
0.508000,-1.397000,
-0.508000,-1.397000,
-0.533970,-1.394470,
-0.557980,-1.387200,
-0.579580,-1.375650,
-0.598290,-1.360290,
-0.613650,-1.341570,
-0.625200,-1.319980,
-0.632470,-1.295970,
-0.635000,-1.270000,
-0.635000,1.270000,
-0.632470,1.295970,
-0.625200,1.319980,
-0.613650,1.341570,
-0.598290,1.360290,
-0.579580,1.375650,
-0.557980,1.387200,
-0.533970,1.394470,
-0.508000,1.397000,
0.508000,1.397000,
0.533970,1.394470,
0.557980,1.387200,
0.579580,1.375650,
0.598290,1.360290,
0.613650,1.341570,
0.625200,1.319980,
0.632470,1.295970,
0.635000,1.270000,
0.635000,-1.270000,
0.632470,-1.295970,
0.625200,-1.319980,
0.613650,-1.341570,
0.598290,-1.360290,
0.579580,-1.375650,
0.557980,-1.387200,
0.533970,-1.394470,
0.508000,-1.397000,
0*%
%ADD48PPAD042*%
%AMPPAD043*
4,1,36,
0.762000,0.508000,
0.762000,-0.508000,
0.759470,-0.533970,
0.752200,-0.557980,
0.740650,-0.579580,
0.725290,-0.598290,
0.706570,-0.613650,
0.684980,-0.625200,
0.660970,-0.632470,
0.635000,-0.635000,
-0.635000,-0.635000,
-0.660970,-0.632470,
-0.684980,-0.625200,
-0.706570,-0.613650,
-0.725290,-0.598290,
-0.740650,-0.579580,
-0.752200,-0.557980,
-0.759470,-0.533970,
-0.762000,-0.508000,
-0.762000,0.508000,
-0.759470,0.533970,
-0.752200,0.557980,
-0.740650,0.579580,
-0.725290,0.598290,
-0.706570,0.613650,
-0.684980,0.625200,
-0.660970,0.632470,
-0.635000,0.635000,
0.635000,0.635000,
0.660970,0.632470,
0.684980,0.625200,
0.706570,0.613650,
0.725290,0.598290,
0.740650,0.579580,
0.752200,0.557980,
0.759470,0.533970,
0.762000,0.508000,
0*%
%ADD49PPAD043*%
%AMPPAD044*
4,1,36,
-0.550000,1.127000,
0.550000,1.127000,
0.575970,1.124470,
0.599980,1.117200,
0.621580,1.105650,
0.640290,1.090290,
0.655650,1.071570,
0.667200,1.049980,
0.674470,1.025970,
0.677000,1.000000,
0.677000,-1.000000,
0.674470,-1.025970,
0.667200,-1.049980,
0.655650,-1.071570,
0.640290,-1.090290,
0.621580,-1.105650,
0.599980,-1.117200,
0.575970,-1.124470,
0.550000,-1.127000,
-0.550000,-1.127000,
-0.575970,-1.124470,
-0.599980,-1.117200,
-0.621580,-1.105650,
-0.640290,-1.090290,
-0.655650,-1.071570,
-0.667200,-1.049980,
-0.674470,-1.025970,
-0.677000,-1.000000,
-0.677000,1.000000,
-0.674470,1.025970,
-0.667200,1.049980,
-0.655650,1.071570,
-0.640290,1.090290,
-0.621580,1.105650,
-0.599980,1.117200,
-0.575970,1.124470,
-0.550000,1.127000,
0*%
%ADD50PPAD044*%
%TA.AperFunction,Profile*%
%ADD28C,0.101600*%
D32*
X-1270000Y-63500D03*
X-1270000Y+63500D03*
X+1079500Y+381000D03*
X-698500Y+190500D03*
X+1397000Y-698500D03*
X-610000Y-698500D03*
X+637672Y-88442D03*
X+335655Y-483779D03*
X-271373Y-346005D03*
X+553720Y-5080D03*
X+177800Y+88900D03*
X+1030000Y-610000D03*
X-698500Y+698500D03*
X+723900Y+104140D03*
X+352140Y-317500D03*
X-238760Y-635000D03*
X+571500Y-414020D03*
X+410000Y-230000D03*
X+1270000Y-190500D03*
X+889000Y-254000D03*
X+1143000Y+508000D03*
X+1090263Y-324591D03*
X+970000Y+90000D03*
X+1084580Y-218440D03*
X+170000Y-60000D03*
X+294488Y-221954D03*
X+635000Y+63500D03*
X+533936Y+100404D03*
X-180329Y+461239D03*
D33*
X-930000Y-350000D03*
X-930000Y-100000D03*
X-930000Y+100000D03*
X-930000Y+350000D03*
D34*
X-1180000Y-585000D03*
X-1180000Y+585000D03*
D35*
X-640000Y+103980D03*
X-640000Y+10000D03*
X-640000Y-86520D03*
X-401240Y-86520D03*
X-401240Y+7460D03*
X-401240Y+103980D03*
D36*
X-250000Y+100000D03*
X-36640Y+100000D03*
X-250000Y-90000D03*
X-36640Y-90000D03*
X+66640Y-90000D03*
X+280000Y-90000D03*
X+70000Y+100000D03*
X+283360Y+100000D03*
D37*
X+825000Y-150000D03*
D38*
X+825000Y-100000D03*
X+825000Y-50000D03*
X+825000Y+0D03*
X+825000Y+50000D03*
X+825000Y+100000D03*
D39*
X+825000Y+150000D03*
D40*
X+787500Y+187500D03*
D41*
X+737500Y+187500D03*
X+687500Y+187500D03*
X+637500Y+187500D03*
X+587500Y+187500D03*
X+537500Y+187500D03*
D42*
X+487500Y+187500D03*
D43*
X+450000Y+150000D03*
D38*
X+450000Y+100000D03*
X+450000Y+50000D03*
X+450000Y+0D03*
X+450000Y-50000D03*
X+450000Y-100000D03*
D44*
X+450000Y-150000D03*
D45*
X+487500Y-187500D03*
D41*
X+537500Y-187500D03*
X+587500Y-187500D03*
X+637500Y-187500D03*
X+687500Y-187500D03*
X+737500Y-187500D03*
D46*
X+787500Y-187500D03*
D36*
X-400000Y-230000D03*
X-613360Y-230000D03*
D35*
X-610000Y-370000D03*
X-610000Y-463980D03*
X-610000Y-560500D03*
X-371240Y-560500D03*
X-371240Y-370000D03*
D36*
X-350000Y-670000D03*
X-136640Y-670000D03*
X+1413360Y-570000D03*
X+1200000Y-570000D03*
D35*
X+1178080Y-173480D03*
X+1178080Y-267460D03*
X+1178080Y-363980D03*
X+1416840Y-363980D03*
X+1416840Y-173480D03*
D47*
X+1330000Y+440000D03*
X+1236020Y+249500D03*
X+1423980Y+249500D03*
D48*
X+1440000Y+50000D03*
X+1125040Y+50000D03*
D49*
X+970000Y+200000D03*
X+970000Y-13360D03*
D36*
X+1323360Y+610000D03*
X+1110000Y+610000D03*
D49*
X+960000Y+613360D03*
X+960000Y+400000D03*
X+800000Y+613360D03*
X+800000Y+400000D03*
D36*
X+444500Y-350000D03*
X+231140Y-350000D03*
D49*
X+650000Y+610000D03*
X+650000Y+396640D03*
X+500000Y+400000D03*
X+500000Y+613360D03*
D36*
X-90000Y+590000D03*
X+123360Y+590000D03*
D49*
X+1030000Y-683360D03*
X+1030000Y-470000D03*
X+970000Y-146640D03*
X+970000Y-360000D03*
D50*
X+40000Y-640000D03*
X+40000Y-640000D03*
X+240000Y-640000D03*
X+440000Y-640000D03*
X+640000Y-640000D03*
X+840000Y-640000D03*
D28*
X-1490000Y-760000D02*
X+1510000Y-760000D01*
X+1510000Y+760000D01*
X-1490000Y+760000D01*
X-1490000Y-760000D01*
M02*
