G04 PROTEUS GERBER X2 FILE*
%TF.GenerationSoftware,Labcenter,Proteus,8.5-SP0-Build22067*%
%TF.CreationDate,2018-05-26T17:21:35+00:00*%
%TF.FileFunction,Legend,Bot*%
%TF.FilePolarity,Positive*%
%TF.Part,Single*%
%FSLAX45Y45*%
%MOMM*%
G01*
%TA.AperFunction,Material*%
%ADD17C,0.203200*%
%TA.AperFunction,Profile*%
%ADD13C,0.203200*%
D17*
X+720230Y-1436970D02*
X+847230Y-1436970D01*
X+847230Y-1157570D01*
X+720230Y-1157570D01*
X+720230Y-1436970D01*
X+232000Y+466000D02*
X+59500Y+466000D01*
X+55064Y+443370D01*
X+42879Y+425121D01*
X+24629Y+412936D01*
X+2000Y+408500D01*
X-55500Y+466000D02*
X-51064Y+443370D01*
X-38879Y+425121D01*
X-20629Y+412936D01*
X+2000Y+408500D01*
X-55500Y+466000D02*
X-228000Y+466000D01*
X+252000Y-396000D02*
X-248000Y-396000D01*
X+232000Y+416000D02*
X+232000Y-346000D01*
X-228000Y+416000D02*
X-228000Y-346000D01*
X+232000Y+416000D02*
X+232000Y+466000D01*
X-228000Y+466000D02*
X-228000Y+416000D01*
X-248000Y-396000D02*
X-228000Y-396000D01*
X-228000Y-346000D01*
X+232000Y-346000D02*
X+232000Y-396000D01*
X+252000Y-396000D01*
X+207000Y+400000D02*
X+206965Y+400831D01*
X+206684Y+402495D01*
X+206094Y+404159D01*
X+205130Y+405823D01*
X+203655Y+407464D01*
X+201991Y+408665D01*
X+200327Y+409430D01*
X+198663Y+409861D01*
X+197000Y+410000D01*
X+187000Y+400000D02*
X+187035Y+400831D01*
X+187316Y+402495D01*
X+187906Y+404159D01*
X+188870Y+405823D01*
X+190345Y+407464D01*
X+192009Y+408665D01*
X+193673Y+409430D01*
X+195337Y+409861D01*
X+197000Y+410000D01*
X+187000Y+400000D02*
X+187035Y+399169D01*
X+187316Y+397505D01*
X+187906Y+395841D01*
X+188870Y+394177D01*
X+190345Y+392536D01*
X+192009Y+391335D01*
X+193673Y+390570D01*
X+195337Y+390139D01*
X+197000Y+390000D01*
X+207000Y+400000D02*
X+206965Y+399169D01*
X+206684Y+397505D01*
X+206094Y+395841D01*
X+205130Y+394177D01*
X+203655Y+392536D01*
X+201991Y+391335D01*
X+200327Y+390570D01*
X+198663Y+390139D01*
X+197000Y+390000D01*
D13*
X-2100000Y-1735000D02*
X+2315000Y-1735000D01*
X+2315000Y+1502000D01*
X-2100000Y+1502000D01*
X-2100000Y-1735000D01*
M02*
