G04 PROTEUS GERBER X2 FILE*
%TF.GenerationSoftware,Labcenter,Proteus,8.5-SP0-Build22067*%
%TF.CreationDate,2018-05-26T17:21:35+00:00*%
%TF.FileFunction,Copper,L16,Bot*%
%TF.FilePolarity,Positive*%
%TF.Part,Single*%
%FSLAX45Y45*%
%MOMM*%
G01*
%TA.AperFunction,NonConductor*%
%ADD14C,0.254000*%
%TA.AperFunction,SMDPad,CuDef*%
%ADD15R,0.635000X0.508000*%
%ADD16R,2.200000X1.200000*%
%TA.AperFunction,ComponentPad*%
%ADD10R,1.270000X1.270000*%
%ADD11C,1.270000*%
%ADD12R,2.032000X2.032000*%
%TA.AperFunction,Profile*%
%ADD13C,0.203200*%
D14*
X+382000Y+416000D02*
X+1041000Y+416000D01*
X+1051000Y+406000D01*
X+382000Y+162000D02*
X+1041000Y+162000D01*
X+1051000Y+152000D01*
X+382000Y-92000D02*
X+1041000Y-92000D01*
X+1051000Y-102000D01*
X+382000Y-346000D02*
X+1041000Y-346000D01*
X+1051000Y-356000D01*
X-378000Y-346000D02*
X-378000Y-695000D01*
X-379000Y-696000D01*
X+1784818Y-696000D01*
X+1810686Y-670132D01*
X+1810686Y-358314D01*
X+1813000Y-356000D01*
X+1813000Y-102000D02*
X+2093000Y-102000D01*
X+2102000Y-93000D01*
X+2102000Y-914232D01*
X+2089323Y-926909D01*
X-617443Y-926909D01*
X-630272Y-914080D01*
X-630272Y-698728D01*
X-633000Y-696000D01*
X-633000Y-102213D01*
X-617444Y-86657D01*
X-383343Y-86657D01*
X-378000Y-92000D01*
X-378000Y+162000D02*
X-683000Y+162000D01*
X-861000Y-16000D01*
X-887000Y-42000D01*
X-887000Y-696000D01*
X-1141000Y-696000D02*
X-1141000Y-7000D01*
X-406000Y+728000D01*
X+1190878Y+728000D01*
X+1197353Y+721525D01*
X+1197353Y+298353D01*
X+1051000Y+152000D01*
X-1395000Y-696000D02*
X-1395000Y-37864D01*
X-415318Y+941818D01*
X+1326182Y+941818D01*
X+1355000Y+913000D01*
X+1355000Y+202000D01*
X+1051000Y-102000D01*
X-1649000Y-696000D02*
X-1649000Y-41789D01*
X-410848Y+1196363D01*
X+1468494Y+1196363D01*
X+1468494Y+61494D01*
X+1051000Y-356000D01*
X-1903000Y-696000D02*
X-1903000Y-90142D01*
X-427313Y+1385545D01*
X+1599555Y+1385545D01*
X+1612383Y+1372717D01*
X+1612383Y+98617D01*
X+1813000Y-102000D01*
X+663080Y-1199480D02*
X+558925Y-1199480D01*
X+401445Y-1042000D01*
X-887000Y-696000D02*
X-887000Y-1039000D01*
X-867556Y-1042000D01*
X+401445Y-1042000D01*
X+414445Y-1029000D01*
X+2196000Y-1029000D01*
X+2202000Y+152000D01*
X+1813000Y+152000D01*
X+663080Y-1389980D02*
X-771020Y-1389980D01*
X-1119000Y-1042000D01*
X-1119000Y-718000D01*
X-1141000Y-696000D01*
X+901840Y-1389980D02*
X+901840Y-1494000D01*
X+880560Y-1498000D01*
X-850942Y-1498000D01*
X-1351745Y-997197D01*
X-1351745Y-739255D01*
X-1395000Y-696000D01*
X+901840Y-1293460D02*
X+973899Y-1293460D01*
X+983134Y-1302695D01*
X+983134Y-1564000D01*
X+909155Y-1564000D01*
X-842977Y-1564000D01*
X-1068619Y-1564000D01*
X-1649000Y-983619D01*
X-1649000Y-696000D01*
X+901840Y-1199480D02*
X+1055799Y-1199480D01*
X+1061690Y-1193589D01*
X+1074783Y-1206682D01*
X+1074783Y-1625000D01*
X-1243290Y-1625000D01*
X-1875457Y-992833D01*
X-1875457Y-723543D01*
X-1903000Y-696000D01*
D15*
X+901840Y-1199480D03*
X+901840Y-1293460D03*
X+901840Y-1389980D03*
X+663080Y-1389980D03*
X+663080Y-1199480D03*
D16*
X+382000Y+416000D03*
X+382000Y+162000D03*
X+382000Y-92000D03*
X+382000Y-346000D03*
X-378000Y-346000D03*
X-378000Y-92000D03*
X-378000Y+162000D03*
X-378000Y+416000D03*
D10*
X+1051000Y+406000D03*
D11*
X+1051000Y+152000D03*
X+1051000Y-102000D03*
X+1051000Y-356000D03*
X+1813000Y-356000D03*
X+1813000Y-102000D03*
X+1813000Y+152000D03*
X+1813000Y+406000D03*
D12*
X-1903000Y-696000D03*
X-1649000Y-696000D03*
X-1395000Y-696000D03*
X-1141000Y-696000D03*
X-887000Y-696000D03*
X-633000Y-696000D03*
X-379000Y-696000D03*
D13*
X-2100000Y-1735000D02*
X+2315000Y-1735000D01*
X+2315000Y+1502000D01*
X-2100000Y+1502000D01*
X-2100000Y-1735000D01*
M02*
