G04 PROTEUS GERBER X2 FILE*
%TF.GenerationSoftware,Labcenter,Proteus,8.5-SP0-Build22067*%
%TF.CreationDate,2018-05-23T12:33:45+00:00*%
%TF.FileFunction,Copper,L1,Top*%
%TF.FilePolarity,Positive*%
%TF.Part,Single*%
%FSLAX45Y45*%
%MOMM*%
G01*
%TA.AperFunction,Conductor*%
%ADD10C,0.100000*%
%TA.AperFunction,ViaPad*%
%ADD11C,0.762000*%
%TA.AperFunction,SMDPad,CuDef*%
%ADD12R,2.000000X1.100000*%
%AMPPAD003*
4,1,20,
-0.063500,-0.038100,
-0.063500,0.038100,
-0.061540,0.048090,
-0.056160,0.056160,
-0.048090,0.061540,
-0.038100,0.063500,
0.038100,0.063500,
0.048090,0.061540,
0.056160,0.056160,
0.061540,0.048090,
0.063500,0.038100,
0.063500,-0.038100,
0.061540,-0.048090,
0.056160,-0.056160,
0.048090,-0.061540,
0.038100,-0.063500,
-0.038100,-0.063500,
-0.048090,-0.061540,
-0.056160,-0.056160,
-0.061540,-0.048090,
-0.063500,-0.038100,
0*%
%TA.AperFunction,WasherPad*%
%ADD13PPAD003*%
%TA.AperFunction,SMDPad,CuDef*%
%ADD14R,0.635000X0.508000*%
%ADD15R,1.016000X1.270000*%
%AMPPAD006*
4,1,5,
0.250000,0.150000,
0.250000,-0.150000,
-0.100000,-0.150000,
-0.250000,0.000000,
-0.250000,0.150000,
0.250000,0.150000,
0*%
%ADD16PPAD006*%
%ADD17R,0.550000X0.300000*%
%AMPPAD008*
4,1,5,
0.250000,-0.150000,
0.250000,0.150000,
-0.100000,0.150000,
-0.250000,0.000000,
-0.250000,-0.150000,
0.250000,-0.150000,
0*%
%ADD18PPAD008*%
%AMPPAD009*
4,1,5,
-0.150000,0.250000,
0.150000,0.250000,
0.150000,-0.100000,
0.000000,-0.250000,
-0.150000,-0.250000,
-0.150000,0.250000,
0*%
%ADD19PPAD009*%
%ADD70R,0.300000X0.550000*%
%AMPPAD011*
4,1,5,
0.150000,0.250000,
-0.150000,0.250000,
-0.150000,-0.100000,
0.000000,-0.250000,
0.150000,-0.250000,
0.150000,0.250000,
0*%
%ADD71PPAD011*%
%AMPPAD012*
4,1,5,
-0.250000,-0.150000,
-0.250000,0.150000,
0.100000,0.150000,
0.250000,0.000000,
0.250000,-0.150000,
-0.250000,-0.150000,
0*%
%ADD20PPAD012*%
%AMPPAD013*
4,1,5,
-0.250000,0.150000,
-0.250000,-0.150000,
0.100000,-0.150000,
0.250000,0.000000,
0.250000,0.150000,
-0.250000,0.150000,
0*%
%ADD21PPAD013*%
%AMPPAD014*
4,1,5,
0.150000,-0.250000,
-0.150000,-0.250000,
-0.150000,0.100000,
0.000000,0.250000,
0.150000,0.250000,
0.150000,-0.250000,
0*%
%ADD22PPAD014*%
%AMPPAD015*
4,1,5,
-0.150000,-0.250000,
0.150000,-0.250000,
0.150000,0.100000,
0.000000,0.250000,
-0.150000,0.250000,
-0.150000,-0.250000,
0*%
%ADD23PPAD015*%
%ADD24R,0.889000X1.016000*%
%ADD25R,1.016000X2.540000*%
%ADD26R,1.270000X1.016000*%
%ADD27R,1.100000X2.000000*%
%TA.AperFunction,Profile*%
%ADD28C,0.101600*%
D10*
X-640000Y+103980D02*
X-640000Y+103979D01*
X-930000Y-100000D02*
X-762000Y-100000D01*
X-748520Y-86520D01*
X-640000Y-86520D01*
X-401240Y-86520D02*
X-401240Y-90000D01*
X-250000Y-90000D01*
X-401240Y+103980D02*
X-401240Y+100000D01*
X-250000Y+100000D01*
X-371240Y-560500D02*
X-350000Y-560500D01*
X-350000Y-670000D01*
X+1125040Y+50000D02*
X+1125040Y+249500D01*
X+1236020Y+249500D01*
X+1125040Y+50000D02*
X+1125040Y-173480D01*
X+1178080Y-173480D01*
X+1110000Y+610000D02*
X+1110000Y+613360D01*
X+960000Y+613360D01*
X+960000Y+400000D02*
X+960000Y+508000D01*
X+800000Y+508000D01*
X+800000Y+613360D01*
X-1270000Y+63500D02*
X-1270000Y-63500D01*
X+487500Y+187500D02*
X+487500Y+187499D01*
X+500000Y+400000D02*
X+500000Y+313368D01*
X+489575Y+302943D01*
X+489575Y+189575D01*
X+487500Y+187500D01*
X+825000Y-150000D02*
X+825000Y-146640D01*
X+970000Y-146640D01*
X+650000Y+610000D02*
X+650000Y+613360D01*
X+500000Y+613360D01*
X+1330000Y+440000D02*
X+1138500Y+440000D01*
X+1079500Y+381000D01*
X+1079500Y+317500D02*
X+970000Y+317500D01*
X+970000Y+200000D01*
X+1330000Y+440000D02*
X+1330000Y+610000D01*
X+1323360Y+610000D01*
X+1079500Y+317500D02*
X+1079500Y+381000D01*
X-400000Y-230000D02*
X-400000Y-217460D01*
X-508000Y-217460D01*
X-508000Y+7460D01*
X-444500Y+7460D02*
X-508000Y+7460D01*
X-400000Y-230000D02*
X-371240Y-230000D01*
X-371240Y-370000D01*
X-401240Y+7460D02*
X-401240Y+7459D01*
X-444500Y+7459D01*
X-444500Y+7460D01*
X+737500Y-187500D02*
X+737501Y-187500D01*
X+537500Y-187500D02*
X+544115Y-194115D01*
X+544115Y-242120D01*
X+622120Y-242120D01*
X+840000Y-460000D01*
X+840000Y-640000D01*
X-640000Y+10000D02*
X-583250Y+9999D01*
X-583250Y-230000D01*
X-613360Y-230000D01*
X-640000Y+9999D02*
X-640000Y+10000D01*
X+800000Y+400000D02*
X+800000Y+317500D01*
X+879500Y+238000D01*
X+879500Y-13360D01*
X+970000Y-13360D01*
X-508000Y-463981D02*
X-610000Y-463980D01*
X-610000Y-463981D01*
X+123360Y+590000D02*
X+264860Y+590000D01*
X+346860Y+508000D01*
X+650000Y+396640D02*
X+650000Y+508000D01*
X+346860Y+508000D01*
X+283360Y+100000D02*
X+283360Y+100001D01*
X+346860Y+508000D02*
X+283360Y+444500D01*
X+283360Y+100001D01*
X+381000Y+100001D01*
X+381001Y+100000D01*
X+450000Y+100000D01*
X-136640Y-670000D02*
X+10000Y-670000D01*
X+40000Y-640000D01*
X+487500Y-187500D02*
X+487501Y-187500D01*
X+450000Y-150000D02*
X+450001Y-150000D01*
X-930000Y-355000D02*
X-930000Y-350000D01*
X+1416840Y-173480D02*
X+1416840Y+50000D01*
X+1440000Y+50000D01*
X+1413360Y-570000D02*
X+1413360Y-444500D01*
X+1476755Y-444500D01*
X+1476755Y-173480D01*
X+1416840Y-173480D01*
X-698500Y-370001D02*
X-610000Y-370000D01*
X-610000Y-370001D01*
X+650000Y+396640D02*
X+796640Y+396640D01*
X+800000Y+400000D01*
X+1200000Y-570000D02*
X+1333500Y-570000D01*
X+1333500Y-320000D01*
X+1280000Y-270000D01*
X+1178080Y-267460D01*
X-930000Y-370001D02*
X-930000Y-355000D01*
X-698500Y-370001D02*
X-930000Y-370001D01*
X-610000Y-560500D02*
X-880000Y-560000D01*
X-930000Y-510000D01*
X-930000Y-370001D01*
X-610000Y-560500D02*
X-610000Y-698500D01*
X+1397000Y-698500D02*
X+1413360Y-682140D01*
X+1413360Y-570000D01*
X-508000Y-463981D02*
X-508000Y-290000D01*
X-550000Y-230000D01*
X-583250Y-230000D01*
X-36640Y+100000D02*
X+70000Y+100000D01*
X+970000Y-360000D02*
X+970000Y-410000D01*
X+1030000Y-470000D01*
X+1090000Y-267460D02*
X+1178080Y-267460D01*
X+1090000Y-267460D02*
X+970000Y-267460D01*
X+970000Y-360000D01*
X+825000Y+0D02*
X+726114Y+0D01*
X+637672Y-88442D01*
X+335655Y-483779D02*
X+240000Y-579434D01*
X+240000Y-630000D01*
X+240000Y-640000D01*
X+240000Y-579434D02*
X+240000Y-570000D01*
X+240000Y-579434D02*
X+240000Y-570000D01*
X+640000Y-640000D02*
X+640000Y-317500D01*
X+590000Y-270000D01*
X+525780Y-269240D01*
X+508000Y-254000D01*
X+490000Y-240000D01*
X+487500Y-187500D01*
X-271373Y-346005D02*
X-347245Y-346005D01*
X-371240Y-370000D01*
X+450000Y+50000D02*
X+450000Y+0D01*
X+450000Y-100000D02*
X+571500Y-100000D01*
X+553720Y-5080D01*
X+177800Y+88900D02*
X+70000Y+63500D01*
X+70000Y+100000D01*
X+1030000Y-683360D02*
X+1030000Y-610000D01*
X+444500Y-350000D02*
X+364840Y-350000D01*
X+352140Y-337300D01*
X+352140Y-317500D01*
X-238760Y-635000D02*
X-254000Y-571500D01*
X-361519Y-463981D01*
X-508000Y-463981D01*
X-136640Y-670000D02*
X-219000Y-670000D01*
X-238760Y-635000D01*
X+440000Y-640000D02*
X+440000Y-508000D01*
X+503500Y-444500D01*
X+571500Y-414020D01*
X+410000Y-230000D02*
X+445161Y-190500D01*
X+445161Y-150000D01*
X+450000Y-150000D01*
X+1416840Y-363980D02*
X+1416840Y-254000D01*
X+1333500Y-254000D01*
X+1270000Y-190500D01*
X+889000Y-254000D02*
X+737501Y-254000D01*
X+737500Y-187500D01*
X+1110000Y+610000D02*
X+1110000Y+520700D01*
X+1122700Y+508000D01*
X+1143000Y+508000D01*
X+1090263Y-324591D02*
X+1079500Y-363980D01*
X+1178080Y-363980D01*
X+970000Y-13360D02*
X+970000Y+90000D01*
X+1084580Y-218440D02*
X+1087603Y-265063D01*
X+1090000Y-267460D01*
X+294488Y-221954D02*
X+375920Y-165100D01*
X+378460Y-50800D01*
X+450000Y-50000D01*
X+635000Y+63500D02*
X+662940Y+35560D01*
X+810560Y+35560D01*
X+825000Y+50000D01*
X+450000Y+50000D02*
X+483532Y+50000D01*
X+533936Y+100404D01*
X-180329Y+461239D02*
X-180329Y+499671D01*
X-90000Y+590000D01*
X-930000Y+100000D02*
X-903000Y+127000D01*
X-781042Y+127000D01*
X-660400Y+121920D01*
X-640000Y+103980D01*
X-640000Y+10000D02*
X-680720Y-20320D01*
X-1092200Y-20320D01*
X-1092200Y+350520D01*
X-930000Y+350000D01*
X-698500Y+673100D02*
X-698500Y+190500D01*
X+723900Y+104140D02*
X+825000Y+100000D01*
X-508000Y+7460D02*
X-479639Y+35821D01*
X-479639Y+536361D01*
X-426000Y+590000D01*
X-90000Y+590000D01*
X-762287Y+60292D02*
X-801106Y+21473D01*
X-1058599Y+21473D01*
X-1058599Y+189683D01*
X-1018486Y+229796D01*
X-817928Y+229796D01*
X-745467Y+302257D01*
X-745467Y+519473D01*
X-803722Y+577728D01*
X-784860Y-251460D02*
X-1054884Y-251460D01*
X-1054884Y-154117D01*
X-1180286Y-28715D01*
X-1180286Y+75386D01*
X-1318260Y+213360D01*
X-802741Y+728879D01*
X-640000Y+10000D02*
X-640000Y+48259D01*
X-502920Y+48259D01*
X-502920Y+693420D01*
X-508000Y+698500D01*
X+123360Y+698500D01*
X+123360Y+590000D01*
X-802741Y+728879D02*
X-598118Y+728879D01*
X-581013Y+711774D01*
X-581013Y+459604D01*
X-571867Y+450458D01*
X+284480Y-88900D02*
X+284480Y+100000D01*
X+283360Y+100000D01*
X+71120Y-88900D02*
X-36640Y-88900D01*
X-36640Y-90000D01*
X+284480Y-88900D02*
X+235620Y-88900D01*
X+235620Y-350000D01*
X+231140Y-350000D01*
X+71120Y-88900D02*
X+168480Y-88900D01*
X+174480Y-58900D01*
X+170000Y-58900D01*
X+170000Y-60000D01*
D11*
X-1270000Y-63500D03*
X-1270000Y+63500D03*
X+1397000Y-698500D03*
X-610000Y-698500D03*
X+637672Y-88442D03*
X+335655Y-483779D03*
X-271373Y-346005D03*
X+553720Y-5080D03*
X+177800Y+88900D03*
X+1030000Y-610000D03*
X+352140Y-317500D03*
X-238760Y-635000D03*
X+571500Y-414020D03*
X+410000Y-230000D03*
X+1270000Y-190500D03*
X+889000Y-254000D03*
X+1143000Y+508000D03*
X+1090263Y-324591D03*
X+970000Y+90000D03*
X+1084580Y-218440D03*
X+170000Y-60000D03*
X+294488Y-221954D03*
X+533936Y+100404D03*
X-180329Y+461239D03*
X+635000Y+63500D03*
X+1079500Y+381000D03*
X-698500Y+190500D03*
X-698500Y+673100D03*
X+723900Y+104140D03*
X-762287Y+60292D03*
X-803722Y+577728D03*
X-784860Y-251460D03*
X-571867Y+450458D03*
D12*
X-930000Y-350000D03*
X-930000Y-100000D03*
X-930000Y+100000D03*
X-930000Y+350000D03*
D13*
X-1180000Y-585000D03*
X-1180000Y+585000D03*
D14*
X-640000Y+103980D03*
X-640000Y+10000D03*
X-640000Y-86520D03*
X-401240Y-86520D03*
X-401240Y+7460D03*
X-401240Y+103980D03*
D15*
X-250000Y+100000D03*
X-36640Y+100000D03*
X-250000Y-90000D03*
X-36640Y-90000D03*
X+71120Y-88900D03*
X+284480Y-88900D03*
X+70000Y+100000D03*
X+283360Y+100000D03*
D16*
X+825000Y-150000D03*
D17*
X+825000Y-100000D03*
X+825000Y-50000D03*
X+825000Y+0D03*
X+825000Y+50000D03*
X+825000Y+100000D03*
D18*
X+825000Y+150000D03*
D19*
X+787500Y+187500D03*
D70*
X+737500Y+187500D03*
X+687500Y+187500D03*
X+637500Y+187500D03*
X+587500Y+187500D03*
X+537500Y+187500D03*
D71*
X+487500Y+187500D03*
D20*
X+450000Y+150000D03*
D17*
X+450000Y+100000D03*
X+450000Y+50000D03*
X+450000Y+0D03*
X+450000Y-50000D03*
X+450000Y-100000D03*
D21*
X+450000Y-150000D03*
D22*
X+487500Y-187500D03*
D70*
X+537500Y-187500D03*
X+587500Y-187500D03*
X+637500Y-187500D03*
X+687500Y-187500D03*
X+737500Y-187500D03*
D23*
X+787500Y-187500D03*
D15*
X-400000Y-230000D03*
X-613360Y-230000D03*
D14*
X-610000Y-370000D03*
X-610000Y-463980D03*
X-610000Y-560500D03*
X-371240Y-560500D03*
X-371240Y-370000D03*
D15*
X-350000Y-670000D03*
X-136640Y-670000D03*
X+1413360Y-570000D03*
X+1200000Y-570000D03*
D14*
X+1178080Y-173480D03*
X+1178080Y-267460D03*
X+1178080Y-363980D03*
X+1416840Y-363980D03*
X+1416840Y-173480D03*
D24*
X+1330000Y+440000D03*
X+1236020Y+249500D03*
X+1423980Y+249500D03*
D25*
X+1440000Y+50000D03*
X+1125040Y+50000D03*
D26*
X+970000Y+200000D03*
X+970000Y-13360D03*
D15*
X+1323360Y+610000D03*
X+1110000Y+610000D03*
D26*
X+960000Y+613360D03*
X+960000Y+400000D03*
X+800000Y+613360D03*
X+800000Y+400000D03*
D15*
X+444500Y-350000D03*
X+231140Y-350000D03*
D26*
X+650000Y+610000D03*
X+650000Y+396640D03*
X+500000Y+400000D03*
X+500000Y+613360D03*
D15*
X-90000Y+590000D03*
X+123360Y+590000D03*
D26*
X+1030000Y-683360D03*
X+1030000Y-470000D03*
X+970000Y-146640D03*
X+970000Y-360000D03*
D27*
X+40000Y-640000D03*
X+40000Y-640000D03*
X+240000Y-640000D03*
X+440000Y-640000D03*
X+640000Y-640000D03*
X+840000Y-640000D03*
D28*
X-1490000Y-760000D02*
X+1510000Y-760000D01*
X+1510000Y+760000D01*
X-1490000Y+760000D01*
X-1490000Y-760000D01*
M02*
