G04 PROTEUS GERBER X2 FILE*
%TF.GenerationSoftware,Labcenter,Proteus,8.5-SP0-Build22067*%
%TF.CreationDate,2018-05-09T22:16:53+00:00*%
%TF.FileFunction,AssemblyDrawing,Top*%
%TF.FilePolarity,Positive*%
%TF.Part,Single*%
%FSLAX45Y45*%
%MOMM*%
G01*
%TA.AperFunction,Profile*%
%ADD28C,0.101600*%
%ADD66C,0.470050*%
%TA.AperFunction,Material*%
%ADD73C,0.101600*%
%ADD67C,0.100750*%
%ADD68C,0.079240*%
%ADD69C,0.156720*%
%ADD74C,0.099900*%
%ADD75C,0.138850*%
%ADD76C,0.078740*%
%ADD77C,0.082290*%
%ADD78C,0.120000*%
D28*
X-1490000Y-760000D02*
X+1510000Y-760000D01*
X+1510000Y+760000D01*
X-1490000Y+760000D01*
X-1490000Y-760000D01*
X-1485080Y-705080D02*
X-674920Y-705080D01*
X-674920Y+705080D01*
X-1485080Y+705080D01*
X-1485080Y-705080D01*
D66*
X-1032995Y-376042D02*
X-985989Y-376042D01*
X-938984Y-329037D01*
X-938984Y-141016D01*
X-985989Y-94011D01*
X-1221016Y-94011D01*
X-1127005Y+94010D02*
X-1221016Y+188021D01*
X-938984Y+188021D01*
D73*
X-671750Y-121380D02*
X-369490Y-121380D01*
X-369490Y+140040D01*
X-671750Y+140040D01*
X-671750Y-121380D01*
D67*
X-601222Y+39556D02*
X-601222Y-10821D01*
X-591147Y-20896D01*
X-550846Y-20896D01*
X-540771Y-10821D01*
X-540771Y+39556D01*
X-500470Y+19405D02*
X-480319Y+39556D01*
X-480319Y-20896D01*
D73*
X-300800Y+31420D02*
X+14160Y+31420D01*
X+14160Y+163500D01*
X-300800Y+163500D01*
X-300800Y+31420D01*
D68*
X-206718Y+73685D02*
X-206718Y+121234D01*
X-167095Y+121234D01*
X-159170Y+113309D01*
X-159170Y+105384D01*
X-167095Y+97460D01*
X-206718Y+97460D01*
X-167095Y+97460D02*
X-159170Y+89535D01*
X-159170Y+73685D01*
X-127471Y+105384D02*
X-111621Y+121234D01*
X-111621Y+73685D01*
D73*
X-300800Y-158580D02*
X+14160Y-158580D01*
X+14160Y-26500D01*
X-300800Y-26500D01*
X-300800Y-158580D01*
D68*
X-206718Y-116315D02*
X-206718Y-68766D01*
X-167095Y-68766D01*
X-159170Y-76691D01*
X-159170Y-84616D01*
X-167095Y-92540D01*
X-206718Y-92540D01*
X-167095Y-92540D02*
X-159170Y-100465D01*
X-159170Y-116315D01*
X-135396Y-76691D02*
X-127471Y-68766D01*
X-103697Y-68766D01*
X-95772Y-76691D01*
X-95772Y-84616D01*
X-103697Y-92540D01*
X-127471Y-92540D01*
X-135396Y-100465D01*
X-135396Y-116315D01*
X-95772Y-116315D01*
D73*
X+15840Y-158580D02*
X+330800Y-158580D01*
X+330800Y-26500D01*
X+15840Y-26500D01*
X+15840Y-158580D01*
D68*
X+157470Y-108390D02*
X+149545Y-116315D01*
X+125771Y-116315D01*
X+109922Y-100465D01*
X+109922Y-84616D01*
X+125771Y-68766D01*
X+149545Y-68766D01*
X+157470Y-76691D01*
X+181244Y-76691D02*
X+189169Y-68766D01*
X+212943Y-68766D01*
X+220868Y-76691D01*
X+220868Y-84616D01*
X+212943Y-92540D01*
X+189169Y-92540D01*
X+181244Y-100465D01*
X+181244Y-116315D01*
X+220868Y-116315D01*
D73*
X+19200Y+31420D02*
X+334160Y+31420D01*
X+334160Y+163500D01*
X+19200Y+163500D01*
X+19200Y+31420D01*
D68*
X+160830Y+81610D02*
X+152905Y+73685D01*
X+129131Y+73685D01*
X+113282Y+89535D01*
X+113282Y+105384D01*
X+129131Y+121234D01*
X+152905Y+121234D01*
X+160830Y+113309D01*
X+184604Y+113309D02*
X+192529Y+121234D01*
X+216303Y+121234D01*
X+224228Y+113309D01*
X+224228Y+105384D01*
X+216303Y+97460D01*
X+224228Y+89535D01*
X+224228Y+81610D01*
X+216303Y+73685D01*
X+192529Y+73685D01*
X+184604Y+81610D01*
X+200454Y+97460D02*
X+216303Y+97460D01*
D73*
X+399920Y-235080D02*
X+870080Y-235080D01*
X+870080Y+235080D01*
X+399920Y+235080D01*
X+399920Y-235080D01*
D69*
X+509624Y+47016D02*
X+509624Y-31344D01*
X+525296Y-47016D01*
X+587984Y-47016D01*
X+603656Y-31344D01*
X+603656Y+47016D01*
X+729032Y+31344D02*
X+713360Y+47016D01*
X+666344Y+47016D01*
X+650672Y+31344D01*
X+650672Y-31344D01*
X+666344Y-47016D01*
X+713360Y-47016D01*
X+729032Y-31344D01*
X+729032Y-15672D01*
X+713360Y+0D01*
X+650672Y+0D01*
D73*
X-664160Y-293500D02*
X-349200Y-293500D01*
X-349200Y-161420D01*
X-664160Y-161420D01*
X-664160Y-293500D01*
D68*
X-522530Y-243310D02*
X-530455Y-251235D01*
X-554229Y-251235D01*
X-570078Y-235385D01*
X-570078Y-219536D01*
X-554229Y-203686D01*
X-530455Y-203686D01*
X-522530Y-211611D01*
X-490831Y-219536D02*
X-474981Y-203686D01*
X-474981Y-251235D01*
D73*
X-641750Y-612570D02*
X-339490Y-612570D01*
X-339490Y-323010D01*
X-641750Y-323010D01*
X-641750Y-612570D01*
D67*
X-571222Y-437564D02*
X-571222Y-487941D01*
X-561147Y-498016D01*
X-520846Y-498016D01*
X-510771Y-487941D01*
X-510771Y-437564D01*
X-480545Y-447639D02*
X-470470Y-437564D01*
X-440244Y-437564D01*
X-430169Y-447639D01*
X-430169Y-457715D01*
X-440244Y-467790D01*
X-470470Y-467790D01*
X-480545Y-477865D01*
X-480545Y-498016D01*
X-430169Y-498016D01*
D73*
X-400800Y-738580D02*
X-85840Y-738580D01*
X-85840Y-606500D01*
X-400800Y-606500D01*
X-400800Y-738580D01*
D68*
X-259170Y-688390D02*
X-267095Y-696315D01*
X-290869Y-696315D01*
X-306718Y-680465D01*
X-306718Y-664616D01*
X-290869Y-648766D01*
X-267095Y-648766D01*
X-259170Y-656691D01*
X-195772Y-648766D02*
X-235396Y-648766D01*
X-235396Y-664616D01*
X-203697Y-664616D01*
X-195772Y-672540D01*
X-195772Y-688390D01*
X-203697Y-696315D01*
X-227471Y-696315D01*
X-235396Y-688390D01*
D73*
X+1149200Y-633500D02*
X+1464160Y-633500D01*
X+1464160Y-501420D01*
X+1149200Y-501420D01*
X+1149200Y-633500D01*
D68*
X+1290830Y-583310D02*
X+1282905Y-591235D01*
X+1259131Y-591235D01*
X+1243282Y-575385D01*
X+1243282Y-559536D01*
X+1259131Y-543686D01*
X+1282905Y-543686D01*
X+1290830Y-551611D01*
X+1354228Y-551611D02*
X+1346303Y-543686D01*
X+1322529Y-543686D01*
X+1314604Y-551611D01*
X+1314604Y-583310D01*
X+1322529Y-591235D01*
X+1346303Y-591235D01*
X+1354228Y-583310D01*
X+1354228Y-575385D01*
X+1346303Y-567460D01*
X+1314604Y-567460D01*
D73*
X+1146330Y-416050D02*
X+1448590Y-416050D01*
X+1448590Y-126490D01*
X+1146330Y-126490D01*
X+1146330Y-416050D01*
D67*
X+1216858Y-241044D02*
X+1216858Y-291421D01*
X+1226933Y-301496D01*
X+1267234Y-301496D01*
X+1277309Y-291421D01*
X+1277309Y-241044D01*
X+1307535Y-251119D02*
X+1317610Y-241044D01*
X+1347836Y-241044D01*
X+1357911Y-251119D01*
X+1357911Y-261195D01*
X+1347836Y-271270D01*
X+1357911Y-281345D01*
X+1357911Y-291421D01*
X+1347836Y-301496D01*
X+1317610Y-301496D01*
X+1307535Y-291421D01*
X+1327685Y-271270D02*
X+1347836Y-271270D01*
D73*
X+1180140Y+198700D02*
X+1479860Y+198700D01*
X+1479860Y+490800D01*
X+1180140Y+490800D01*
X+1180140Y+198700D01*
D74*
X+1250076Y+374721D02*
X+1250076Y+324768D01*
X+1260066Y+314778D01*
X+1300028Y+314778D01*
X+1310019Y+324768D01*
X+1310019Y+374721D01*
X+1389943Y+334759D02*
X+1330000Y+334759D01*
X+1369962Y+374721D01*
X+1369962Y+314778D01*
D73*
X+1074240Y-82080D02*
X+1490800Y-82080D01*
X+1490800Y+182080D01*
X+1074240Y+182080D01*
X+1074240Y-82080D01*
D75*
X+1171438Y+91656D02*
X+1171438Y+8344D01*
X+1254749Y+8344D01*
X+1310290Y+63885D02*
X+1338061Y+91656D01*
X+1338061Y+8344D01*
D73*
X+901420Y-64160D02*
X+1033500Y-64160D01*
X+1033500Y+250800D01*
X+901420Y+250800D01*
X+901420Y-64160D01*
D68*
X+983310Y+77470D02*
X+991235Y+69545D01*
X+991235Y+45771D01*
X+975385Y+29922D01*
X+959536Y+29922D01*
X+943686Y+45771D01*
X+943686Y+69545D01*
X+951611Y+77470D01*
X+943686Y+101244D02*
X+943686Y+140868D01*
X+951611Y+140868D01*
X+991235Y+101244D01*
D73*
X+1059200Y+546500D02*
X+1374160Y+546500D01*
X+1374160Y+678580D01*
X+1059200Y+678580D01*
X+1059200Y+546500D01*
D68*
X+1153282Y+588765D02*
X+1153282Y+636314D01*
X+1192905Y+636314D01*
X+1200830Y+628389D01*
X+1200830Y+620464D01*
X+1192905Y+612540D01*
X+1153282Y+612540D01*
X+1192905Y+612540D02*
X+1200830Y+604615D01*
X+1200830Y+588765D01*
X+1224604Y+628389D02*
X+1232529Y+636314D01*
X+1256303Y+636314D01*
X+1264228Y+628389D01*
X+1264228Y+620464D01*
X+1256303Y+612540D01*
X+1264228Y+604615D01*
X+1264228Y+596690D01*
X+1256303Y+588765D01*
X+1232529Y+588765D01*
X+1224604Y+596690D01*
X+1240454Y+612540D02*
X+1256303Y+612540D01*
D73*
X+891420Y+349200D02*
X+1023500Y+349200D01*
X+1023500Y+664160D01*
X+891420Y+664160D01*
X+891420Y+349200D01*
D68*
X+981235Y+443282D02*
X+933686Y+443282D01*
X+933686Y+482905D01*
X+941611Y+490830D01*
X+949536Y+490830D01*
X+957460Y+482905D01*
X+957460Y+443282D01*
X+957460Y+482905D02*
X+965385Y+490830D01*
X+981235Y+490830D01*
X+965385Y+554228D02*
X+965385Y+506680D01*
X+933686Y+538379D01*
X+981235Y+538379D01*
D73*
X+731420Y+349200D02*
X+863500Y+349200D01*
X+863500Y+664160D01*
X+731420Y+664160D01*
X+731420Y+349200D01*
D68*
X+821235Y+443282D02*
X+773686Y+443282D01*
X+773686Y+482905D01*
X+781611Y+490830D01*
X+789536Y+490830D01*
X+797460Y+482905D01*
X+797460Y+443282D01*
X+797460Y+482905D02*
X+805385Y+490830D01*
X+821235Y+490830D01*
X+773686Y+554228D02*
X+773686Y+514604D01*
X+789536Y+514604D01*
X+789536Y+546303D01*
X+797460Y+554228D01*
X+813310Y+554228D01*
X+821235Y+546303D01*
X+821235Y+522529D01*
X+813310Y+514604D01*
D73*
X+180340Y-413500D02*
X+495300Y-413500D01*
X+495300Y-281420D01*
X+180340Y-281420D01*
X+180340Y-413500D01*
D76*
X+290576Y-363208D02*
X+282702Y-371082D01*
X+259080Y-371082D01*
X+243332Y-355334D01*
X+243332Y-339586D01*
X+259080Y-323838D01*
X+282702Y-323838D01*
X+290576Y-331712D01*
X+322072Y-339586D02*
X+337820Y-323838D01*
X+337820Y-371082D01*
X+377190Y-331712D02*
X+385064Y-323838D01*
X+408686Y-323838D01*
X+416560Y-331712D01*
X+416560Y-339586D01*
X+408686Y-347460D01*
X+416560Y-355334D01*
X+416560Y-363208D01*
X+408686Y-371082D01*
X+385064Y-371082D01*
X+377190Y-363208D01*
X+392938Y-347460D02*
X+408686Y-347460D01*
D73*
X+581420Y+345840D02*
X+718580Y+345840D01*
X+718580Y+660800D01*
X+581420Y+660800D01*
X+581420Y+345840D01*
D77*
X+674689Y+437484D02*
X+625312Y+437484D01*
X+625312Y+470402D01*
X+641771Y+486861D01*
X+658230Y+486861D01*
X+674689Y+470402D01*
X+674689Y+437484D01*
X+641771Y+519779D02*
X+625312Y+536238D01*
X+674689Y+536238D01*
D73*
X+436500Y+349200D02*
X+568580Y+349200D01*
X+568580Y+664160D01*
X+436500Y+664160D01*
X+436500Y+349200D01*
D76*
X+526162Y+412192D02*
X+478918Y+412192D01*
X+478918Y+451562D01*
X+486792Y+459436D01*
X+494666Y+459436D01*
X+502540Y+451562D01*
X+502540Y+412192D01*
X+502540Y+451562D02*
X+510414Y+459436D01*
X+526162Y+459436D01*
X+494666Y+490932D02*
X+478918Y+506680D01*
X+526162Y+506680D01*
X+486792Y+546050D02*
X+478918Y+553924D01*
X+478918Y+577546D01*
X+486792Y+585420D01*
X+494666Y+585420D01*
X+502540Y+577546D01*
X+502540Y+553924D01*
X+510414Y+546050D01*
X+526162Y+546050D01*
X+526162Y+585420D01*
D73*
X-140800Y+521420D02*
X+174160Y+521420D01*
X+174160Y+653500D01*
X-140800Y+653500D01*
X-140800Y+521420D01*
D68*
X+830Y+571610D02*
X-7095Y+563685D01*
X-30869Y+563685D01*
X-46718Y+579535D01*
X-46718Y+595384D01*
X-30869Y+611234D01*
X-7095Y+611234D01*
X+830Y+603309D01*
X+64228Y+579535D02*
X+16680Y+579535D01*
X+48379Y+611234D01*
X+48379Y+563685D01*
D73*
X+966500Y-734160D02*
X+1098580Y-734160D01*
X+1098580Y-419200D01*
X+966500Y-419200D01*
X+966500Y-734160D01*
D76*
X+1048288Y-623924D02*
X+1056162Y-631798D01*
X+1056162Y-655420D01*
X+1040414Y-671168D01*
X+1024666Y-671168D01*
X+1008918Y-655420D01*
X+1008918Y-631798D01*
X+1016792Y-623924D01*
X+1024666Y-592428D02*
X+1008918Y-576680D01*
X+1056162Y-576680D01*
X+1016792Y-537310D02*
X+1008918Y-529436D01*
X+1008918Y-505814D01*
X+1016792Y-497940D01*
X+1024666Y-497940D01*
X+1032540Y-505814D01*
X+1032540Y-529436D01*
X+1040414Y-537310D01*
X+1056162Y-537310D01*
X+1056162Y-497940D01*
D73*
X+901420Y-410800D02*
X+1033500Y-410800D01*
X+1033500Y-95840D01*
X+901420Y-95840D01*
X+901420Y-410800D01*
D76*
X+991082Y-347808D02*
X+943838Y-347808D01*
X+943838Y-308438D01*
X+951712Y-300564D01*
X+959586Y-300564D01*
X+967460Y-308438D01*
X+967460Y-347808D01*
X+967460Y-308438D02*
X+975334Y-300564D01*
X+991082Y-300564D01*
X+959586Y-269068D02*
X+943838Y-253320D01*
X+991082Y-253320D01*
X+959586Y-206076D02*
X+943838Y-190328D01*
X+991082Y-190328D01*
D73*
X-15000Y-740000D02*
X+895000Y-740000D01*
X+895000Y-540000D01*
X-15000Y-540000D01*
X-15000Y-740000D01*
D78*
X+344000Y-652000D02*
X+344000Y-664000D01*
X+356000Y-676000D01*
X+404000Y-676000D01*
X+416000Y-664000D01*
X+416000Y-604000D01*
X+452000Y-616000D02*
X+464000Y-604000D01*
X+500000Y-604000D01*
X+512000Y-616000D01*
X+512000Y-628000D01*
X+500000Y-640000D01*
X+464000Y-640000D01*
X+452000Y-652000D01*
X+452000Y-676000D01*
X+512000Y-676000D01*
M02*
