G04 PROTEUS GERBER X2 FILE*
%TF.GenerationSoftware,Labcenter,Proteus,8.5-SP0-Build22067*%
%TF.CreationDate,2018-05-09T22:16:53+00:00*%
%TF.FileFunction,Copper,L16,Bot*%
%TF.FilePolarity,Positive*%
%TF.Part,Single*%
%FSLAX45Y45*%
%MOMM*%
G01*
%TA.AperFunction,Conductor*%
%ADD10C,0.100000*%
%TA.AperFunction,ViaPad*%
%ADD11C,0.508000*%
%AMPPAD003*
4,1,20,
-0.063500,-0.038100,
-0.063500,0.038100,
-0.061540,0.048090,
-0.056160,0.056160,
-0.048090,0.061540,
-0.038100,0.063500,
0.038100,0.063500,
0.048090,0.061540,
0.056160,0.056160,
0.061540,0.048090,
0.063500,0.038100,
0.063500,-0.038100,
0.061540,-0.048090,
0.056160,-0.056160,
0.048090,-0.061540,
0.038100,-0.063500,
-0.038100,-0.063500,
-0.048090,-0.061540,
-0.056160,-0.056160,
-0.061540,-0.048090,
-0.063500,-0.038100,
0*%
%TA.AperFunction,WasherPad*%
%ADD13PPAD003*%
%TA.AperFunction,SMDPad,CuDef*%
%ADD29R,0.508000X0.635000*%
%ADD15R,1.016000X1.270000*%
%ADD26R,1.270000X1.016000*%
%ADD72R,0.889000X0.406400*%
%TA.AperFunction,Profile*%
%ADD28C,0.101600*%
D10*
X+1079500Y-317500D02*
X+1143000Y-254000D01*
X+1143000Y+508000D01*
X-1190000Y+0D02*
X-1190000Y-1D01*
X-1270000Y-1D01*
X-1270001Y+0D01*
X-1410000Y+0D01*
X-1190000Y+65000D02*
X-1043360Y+65000D01*
X-1043360Y+93480D01*
X-1043360Y+253480D01*
X-1270000Y-63500D02*
X-1268500Y-65000D01*
X-1190000Y-65000D01*
X-1190000Y+65000D02*
X-1190000Y+63500D01*
X-1270000Y+63500D01*
X-762000Y+127000D02*
X-669880Y+127000D01*
X-669880Y+51560D01*
X-830000Y+127000D02*
X-762000Y+127000D01*
X-762000Y+51560D02*
X-762000Y-444500D01*
X-698500Y-508000D01*
X-523360Y-508000D01*
X-523360Y-86520D01*
X-762000Y+51560D02*
X-762000Y+127000D01*
X-830000Y+253480D02*
X-830000Y+127000D01*
X-683360Y+413480D02*
X-575900Y+413480D01*
X-575900Y+290320D01*
X-683360Y+413480D02*
X-683360Y+571500D01*
X-803360Y+571500D01*
X-803360Y+463480D01*
X-470000Y+413480D02*
X-343360Y+413480D01*
X-343360Y+263480D01*
X+1079500Y+381000D02*
X+825500Y+635000D01*
X-825500Y+635000D01*
X-889000Y+571500D01*
X-889000Y+358480D01*
X-952500Y+294980D01*
X-952500Y-119880D01*
X-1043360Y-119880D01*
X+127000Y+0D02*
X-127000Y+0D01*
X+381000Y+0D02*
X+127000Y+0D01*
X+1270000Y-190500D02*
X+1079500Y-381000D01*
X+952500Y-381000D01*
X+889000Y-317500D01*
X+889000Y-254000D01*
X-643360Y-236520D02*
X-643360Y-376520D01*
X-698500Y+698500D02*
X-952500Y+698500D01*
X-1016720Y+634280D01*
X-1016720Y+463480D01*
X-698500Y+190500D02*
X-669880Y+219120D01*
X-669880Y+290320D01*
X+190500Y+63500D02*
X+571500Y+63500D01*
X-430000Y-240000D02*
X-270000Y-240000D01*
X-430000Y-240000D02*
X-430000Y-376520D01*
X-317500Y+127000D02*
X-254000Y+190500D01*
X-254000Y+508000D01*
X-163270Y+598730D01*
X+99770Y+598730D01*
X+635000Y+63500D01*
X-317500Y+127000D02*
X-381000Y+127000D01*
X-479380Y+225380D01*
X-479380Y+290320D01*
X-310000Y-86520D02*
X-430000Y-86520D01*
X-430000Y-236520D01*
X-310000Y-86520D02*
X-254000Y-86520D01*
X-254000Y+127000D01*
X-317500Y+127000D01*
X-430000Y-236520D02*
X-430000Y-240000D01*
X-610000Y-698500D02*
X+1397000Y-698500D01*
X-830000Y+253480D02*
X-863360Y+253480D01*
X-863360Y-86520D01*
X-650000Y-86520D02*
X-650000Y-236520D01*
X-643360Y-236520D01*
X-479380Y+51560D02*
X-610000Y+51560D01*
X-610000Y-86520D01*
X-650000Y-86520D01*
X+970000Y+90000D02*
X+970000Y-103584D01*
X+1087603Y-221187D01*
X-479380Y+51560D02*
X-479380Y+50000D01*
X-343360Y+50000D01*
X-343360Y+50120D01*
X-254000Y-635000D02*
X-259000Y-630000D01*
X-830000Y-630000D01*
X-970000Y-670000D01*
X-1330000Y-670000D01*
X-1410000Y-558500D01*
X-1410000Y-65000D01*
X+571500Y-444500D02*
X+571500Y-381000D01*
X+410000Y-230000D01*
X-698500Y+698500D02*
X+1270000Y+698500D01*
X+1333500Y+635000D01*
X+1333500Y-444500D01*
X+1270000Y-508000D01*
X+762000Y-508000D01*
X+730000Y-440000D01*
X+725500Y+100000D01*
X+1030000Y-610000D02*
X+1030000Y-580000D01*
X+984034Y-534034D01*
X+710047Y-534034D01*
X+690000Y-513987D01*
X+690000Y-60000D01*
X+635000Y-5000D01*
X+635000Y+63500D01*
X+170000Y-60000D02*
X+381000Y-63500D01*
X+637672Y-88442D02*
X+637672Y-441828D01*
X+590631Y-488869D01*
X+340745Y-488869D01*
X+335655Y-483779D01*
X+352140Y-317500D02*
X+112350Y-586150D01*
X-270000Y-586150D01*
X-270000Y-453360D01*
X+381000Y+0D02*
X+444500Y+0D01*
X+444500Y-107830D01*
X+317500Y-107830D01*
X+230000Y-195330D01*
X+230000Y-260000D01*
X+317500Y-260000D01*
X+352140Y-317500D01*
D11*
X+1143000Y+508000D03*
X+1079500Y-317500D03*
X-1270000Y-63500D03*
X-1270000Y+63500D03*
X+1079500Y+381000D03*
X-127000Y+0D03*
X+889000Y-254000D03*
X+1270000Y-190500D03*
X-698500Y+190500D03*
X+571500Y+63500D03*
X+190500Y+63500D03*
X+1397000Y-698500D03*
X+970000Y+90000D03*
X+1087603Y-221187D03*
X+571500Y-444500D03*
X+410000Y-230000D03*
X-610000Y-698500D03*
X-698500Y+698500D03*
X+725500Y+100000D03*
X+1030000Y-610000D03*
X+635000Y+63500D03*
X+170000Y-60000D03*
X+381000Y-63500D03*
X+637672Y-88442D03*
X+335655Y-483779D03*
X+381000Y+0D03*
X+352140Y-317500D03*
X-254000Y-635000D03*
D13*
X-1180000Y-585000D03*
X-1180000Y+585000D03*
D29*
X-669880Y+290320D03*
X-575900Y+290320D03*
X-479380Y+290320D03*
X-479380Y+51560D03*
X-669880Y+51560D03*
D15*
X-1016720Y+463480D03*
X-803360Y+463480D03*
X-683360Y+413480D03*
X-470000Y+413480D03*
D26*
X-343360Y+263480D03*
X-343360Y+50120D03*
D15*
X-310000Y-86520D03*
X-523360Y-86520D03*
X-863360Y-86520D03*
X-650000Y-86520D03*
X-1043360Y+253480D03*
X-830000Y+253480D03*
D72*
X-1190000Y+65000D03*
X-1190000Y+0D03*
X-1190000Y-65000D03*
X-1410000Y-65000D03*
X-1410000Y+0D03*
X-1410000Y+65000D03*
D26*
X-1043360Y-119880D03*
X-1043360Y+93480D03*
X-270000Y-453360D03*
X-270000Y-240000D03*
D15*
X-643360Y-236520D03*
X-430000Y-236520D03*
X-643360Y-376520D03*
X-430000Y-376520D03*
D28*
X-1490000Y-760000D02*
X+1510000Y-760000D01*
X+1510000Y+760000D01*
X-1490000Y+760000D01*
X-1490000Y-760000D01*
M02*
